<svg width="1971" height="2434" viewBox="0 0 1971 2434" fill="none" xmlns="http://www.w3.org/2000/svg">
<path d="M686.752 550C617.984 851.573 844.345 945.445 959.883 963C893.333 859.519 768.83 661.981 803.214 699.678C837.598 737.374 938.625 880.77 984.84 947.755C1039.19 673.9 808.76 568.479 686.752 550Z" fill="#51862E"/>
<path d="M1242.72 738.686C1056.63 716.249 1014.32 858.597 1011.02 929.34C1069.2 882.706 1180.41 795.214 1159.85 818.314C1139.3 841.414 1059.24 911.343 1021.78 943.421C1190.26 958.914 1239.28 813.386 1242.72 738.686Z" fill="#51862E"/>
<mask id="path-3-inside-1_23_7" fill="white">
<path d="M1971 985.5C1971 1114.92 1945.51 1243.07 1895.98 1362.63C1846.46 1482.2 1773.87 1590.84 1682.35 1682.35C1590.84 1773.87 1482.2 1846.46 1362.63 1895.98C1243.07 1945.51 1114.92 1971 985.5 1971C856.082 1971 727.932 1945.51 608.365 1895.98C488.799 1846.46 380.158 1773.87 288.646 1682.35C197.134 1590.84 124.543 1482.2 75.0167 1362.63C25.4907 1243.07 -1.13141e-05 1114.92 0 985.5H97.8745C97.8745 1102.06 120.834 1217.49 165.441 1325.18C210.048 1432.87 275.43 1530.72 357.854 1613.15C440.278 1695.57 538.129 1760.95 645.82 1805.56C753.512 1850.17 868.935 1873.13 985.5 1873.13C1102.06 1873.13 1217.49 1850.17 1325.18 1805.56C1432.87 1760.95 1530.72 1695.57 1613.15 1613.15C1695.57 1530.72 1760.95 1432.87 1805.56 1325.18C1850.17 1217.49 1873.13 1102.06 1873.13 985.5H1971Z"/>
</mask>
<path d="M1971 985.5C1971 1114.92 1945.51 1243.07 1895.98 1362.63C1846.46 1482.2 1773.87 1590.84 1682.35 1682.35C1590.84 1773.87 1482.2 1846.46 1362.63 1895.98C1243.07 1945.51 1114.92 1971 985.5 1971C856.082 1971 727.932 1945.51 608.365 1895.98C488.799 1846.46 380.158 1773.87 288.646 1682.35C197.134 1590.84 124.543 1482.2 75.0167 1362.63C25.4907 1243.07 -1.13141e-05 1114.92 0 985.5H97.8745C97.8745 1102.06 120.834 1217.49 165.441 1325.18C210.048 1432.87 275.43 1530.72 357.854 1613.15C440.278 1695.57 538.129 1760.95 645.82 1805.56C753.512 1850.17 868.935 1873.13 985.5 1873.13C1102.06 1873.13 1217.49 1850.17 1325.18 1805.56C1432.87 1760.95 1530.72 1695.57 1613.15 1613.15C1695.57 1530.72 1760.95 1432.87 1805.56 1325.18C1850.17 1217.49 1873.13 1102.06 1873.13 985.5H1971Z" stroke="#51862E" stroke-width="162" mask="url(#path-3-inside-1_23_7)"/>
<path fill-rule="evenodd" clip-rule="evenodd" d="M1812 963C1812 1182.07 1724.98 1392.17 1570.07 1547.07C1479.37 1637.77 1369.76 1705.19 1250.5 1745.51L1245.5 1401L986 1566.5L721.5 1401V1745.51C602.241 1705.19 492.626 1637.77 401.93 1547.07C247.025 1392.17 160 1182.07 160 963L721.5 963L986 1198.5L1250.5 963H1812Z" fill="#CA3B3B"/>
<path d="M314.163 1097.76C333.336 1112.42 391.302 1090.82 417.889 1078.2C383.412 1051.96 333.338 1031.16 313.672 1047.37C294.007 1063.59 290.196 1079.44 314.163 1097.76Z" fill="#44200F"/>
<path d="M394.164 1285.03C418.188 1287.33 455.977 1238.36 471.869 1213.59C428.737 1209.55 375.231 1218.36 367.111 1242.52C358.99 1266.68 364.135 1282.15 394.164 1285.03Z" fill="#44200F"/>
<path d="M1647.41 1097.93C1628.23 1112.59 1570.27 1090.99 1543.68 1078.37C1578.16 1052.14 1628.23 1031.33 1647.9 1047.54C1667.56 1063.76 1671.37 1079.61 1647.41 1097.93Z" fill="#44200F"/>
<path d="M1567.41 1285.2C1543.38 1287.51 1505.59 1238.53 1489.7 1213.76C1532.83 1209.72 1586.34 1218.53 1594.46 1242.69C1602.58 1266.85 1597.44 1282.32 1567.41 1285.2Z" fill="#44200F"/>
<path d="M1435.45 1452.08C1412.32 1445.19 1395.69 1385.61 1390.27 1356.68C1431.76 1369.14 1478.04 1397.4 1476.49 1422.84C1474.94 1448.28 1464.36 1460.69 1435.45 1452.08Z" fill="#44200F"/>
<path d="M496.472 1435.85C498.356 1411.79 553.125 1383.04 580.275 1371.67C576.795 1414.85 558.867 1466.03 533.665 1469.85C508.464 1473.67 494.118 1465.93 496.472 1435.85Z" fill="#44200F"/>
<path d="M252.28 2298V2059.28H252.6L373.88 2231.44L360.76 2228.88L481.72 2059.28H482.36V2298H451.64V2129.68L453.56 2145.36L366.2 2268.88H365.56L276.92 2145.36L282.36 2130.96V2298H252.28ZM596.523 2301.2C584.149 2301.2 572.843 2298.53 562.602 2293.2C552.576 2287.87 544.576 2280.08 538.603 2269.84C532.843 2259.39 529.963 2246.69 529.963 2231.76C529.963 2217.04 533.056 2204.35 539.243 2193.68C545.429 2182.8 553.643 2174.48 563.883 2168.72C574.336 2162.96 585.749 2160.08 598.123 2160.08C610.496 2160.08 620.949 2162.96 629.483 2168.72C638.016 2174.27 644.523 2180.88 649.003 2188.56L647.083 2193.68L649.963 2165.52H677.483V2298H647.723V2263.44L650.923 2271.12C650.069 2273.25 648.149 2276.03 645.163 2279.44C642.389 2282.64 638.549 2285.95 633.643 2289.36C628.949 2292.77 623.509 2295.65 617.323 2298C611.136 2300.13 604.203 2301.2 596.523 2301.2ZM604.523 2276.56C611.989 2276.56 618.709 2275.17 624.683 2272.4C630.656 2269.63 635.563 2265.79 639.403 2260.88C643.456 2255.76 646.229 2249.68 647.723 2242.64V2216.72C646.016 2210.32 643.029 2204.77 638.763 2200.08C634.496 2195.17 629.376 2191.44 623.403 2188.88C617.429 2186.11 610.816 2184.72 603.563 2184.72C595.669 2184.72 588.416 2186.64 581.803 2190.48C575.189 2194.32 569.856 2199.65 565.803 2206.48C561.963 2213.31 560.043 2221.31 560.043 2230.48C560.043 2239.01 562.069 2246.8 566.123 2253.84C570.176 2260.88 575.616 2266.43 582.443 2270.48C589.269 2274.53 596.629 2276.56 604.523 2276.56ZM778.903 2214.8L810.583 2165.52H840.663L789.783 2236.56L778.903 2214.8ZM845.783 2298H809.943L709.143 2165.52H745.943L845.783 2298ZM775.703 2248.72L740.823 2298H710.743L761.303 2228.88L775.703 2248.72ZM888.933 2361.68L976.293 2165.52H1003.81L918.373 2361.68H888.933ZM921.573 2298.96L857.893 2165.52H891.493L944.933 2283.92L921.573 2298.96ZM1062.42 2165.52L1064.98 2195.28L1063.7 2192.72C1068.6 2182.69 1075.54 2174.8 1084.5 2169.04C1093.67 2163.28 1104.12 2160.4 1115.86 2160.4C1123.32 2160.4 1129.94 2161.57 1135.7 2163.92C1141.46 2166.27 1146.15 2169.68 1149.78 2174.16C1153.62 2178.43 1156.07 2183.76 1157.14 2190.16L1155.54 2191.12C1160.66 2181.52 1167.7 2174.05 1176.66 2168.72C1185.83 2163.17 1195.43 2160.4 1205.46 2160.4C1218.47 2160.4 1228.71 2164.13 1236.18 2171.6C1243.86 2178.85 1247.8 2188.35 1248.02 2200.08V2298H1218.26V2210.64C1218.04 2203.81 1216.34 2198.16 1213.14 2193.68C1210.15 2188.99 1204.82 2186.43 1197.14 2186C1189.46 2186 1182.52 2188.35 1176.34 2193.04C1170.36 2197.73 1165.67 2203.81 1162.26 2211.28C1158.84 2218.53 1157.03 2226.43 1156.82 2234.96V2298H1127.06V2210.64C1126.84 2203.81 1125.03 2198.16 1121.62 2193.68C1118.42 2188.99 1112.98 2186.43 1105.3 2186C1097.4 2186 1090.47 2188.35 1084.5 2193.04C1078.52 2197.73 1073.83 2203.81 1070.42 2211.28C1067.22 2218.75 1065.62 2226.75 1065.62 2235.28V2298H1035.86V2165.52H1062.42ZM1354.96 2301.2C1342.59 2301.2 1331.28 2298.53 1321.04 2293.2C1311.01 2287.87 1303.01 2280.08 1297.04 2269.84C1291.28 2259.39 1288.4 2246.69 1288.4 2231.76C1288.4 2217.04 1291.49 2204.35 1297.68 2193.68C1303.87 2182.8 1312.08 2174.48 1322.32 2168.72C1332.77 2162.96 1344.19 2160.08 1356.56 2160.08C1368.93 2160.08 1379.39 2162.96 1387.92 2168.72C1396.45 2174.27 1402.96 2180.88 1407.44 2188.56L1405.52 2193.68L1408.4 2165.52H1435.92V2298H1406.16V2263.44L1409.36 2271.12C1408.51 2273.25 1406.59 2276.03 1403.6 2279.44C1400.83 2282.64 1396.99 2285.95 1392.08 2289.36C1387.39 2292.77 1381.95 2295.65 1375.76 2298C1369.57 2300.13 1362.64 2301.2 1354.96 2301.2ZM1362.96 2276.56C1370.43 2276.56 1377.15 2275.17 1383.12 2272.4C1389.09 2269.63 1394 2265.79 1397.84 2260.88C1401.89 2255.76 1404.67 2249.68 1406.16 2242.64V2216.72C1404.45 2210.32 1401.47 2204.77 1397.2 2200.08C1392.93 2195.17 1387.81 2191.44 1381.84 2188.88C1375.87 2186.11 1369.25 2184.72 1362 2184.72C1354.11 2184.72 1346.85 2186.64 1340.24 2190.48C1333.63 2194.32 1328.29 2199.65 1324.24 2206.48C1320.4 2213.31 1318.48 2221.31 1318.48 2230.48C1318.48 2239.01 1320.51 2246.8 1324.56 2253.84C1328.61 2260.88 1334.05 2266.43 1340.88 2270.48C1347.71 2274.53 1355.07 2276.56 1362.96 2276.56ZM1513.98 2165.52L1516.86 2203.92L1515.26 2198.8C1518.67 2190.69 1523.58 2183.87 1529.98 2178.32C1536.59 2172.56 1543.42 2168.19 1550.46 2165.2C1557.71 2162 1564.01 2160.4 1569.34 2160.4L1567.74 2189.84C1557.71 2189.2 1548.86 2191.12 1541.18 2195.6C1533.71 2200.08 1527.74 2206.05 1523.26 2213.52C1518.99 2220.99 1516.86 2228.99 1516.86 2237.52V2298H1487.42V2165.52H1513.98ZM1620.53 2107.28H1650.29V2166.16H1686.77V2189.52H1650.29V2298H1620.53V2189.52H1596.21V2166.16H1620.53V2107.28Z" fill="#51862E"/>
</svg>
